<svg xmlns="http://www.w3.org/2000/svg" xmlns:xlink="http://www.w3.org/1999/xlink" viewBox="0 0 121.35 123"><defs><style>.cls-1{fill:url(#未命名的渐变_49);}.cls-2{fill:url(#未命名的渐变_69);}.cls-3{fill:url(#未命名的渐变_101);}</style><linearGradient id="未命名的渐变_49" x1="59.52" y1="91.42" x2="102.03" y2="90.9" gradientTransform="translate(0.18 -0.07) rotate(-0.03)" gradientUnits="userSpaceOnUse"><stop offset="0" stop-color="#579cff"/><stop offset="1" stop-color="#0133ea"/></linearGradient><linearGradient id="未命名的渐变_69" x1="107.08" y1="83.5" x2="77.63" y2="9.38" gradientTransform="translate(0.18 -0.07) rotate(-0.03)" gradientUnits="userSpaceOnUse"><stop offset="0" stop-color="#579cff"/><stop offset="1" stop-color="#0147ea"/></linearGradient><linearGradient id="未命名的渐变_101" x1="64.81" y1="7.62" x2="18.15" y2="120.93" gradientTransform="translate(0.18 -0.07) rotate(-0.03)" gradientUnits="userSpaceOnUse"><stop offset="0" stop-color="#01f9c2"/><stop offset="1" stop-color="#12d7de"/></linearGradient></defs><g id="图层_2" data-name="图层 2"><g id="图层_1-2" data-name="图层 1"><path class="cls-1" d="M101.42,97.89l0-.07L92,75H74.8A16.41,16.41,0,0,0,59.63,85.18l-7.07,17.18A3.36,3.36,0,0,0,55.67,107l39.54,0a6.56,6.56,0,0,0,6.21-9.09Z"/><path class="cls-2" d="M90.45,0H81.81L71,26.12,91.29,75.38,100.63,98a6.38,6.38,0,0,1,.5,2.48,6.5,6.5,0,0,1-6.5,6.5h3.85a8.78,8.78,0,0,0,8.11-5.42l14.18-34a7.54,7.54,0,0,0,0-5.77L97.15,4.47A7.25,7.25,0,0,0,90.45,0Z"/><path class="cls-3" d="M53.85,0a7.5,7.5,0,0,0-6.94,4.65L.27,118.06A3.58,3.58,0,0,0,3.58,123H22.66a14.05,14.05,0,0,0,13-8.71S80.58,5,81.19,3.76A7.66,7.66,0,0,1,85,.43,12.73,12.73,0,0,1,87.35,0Z"/></g></g></svg>